ffmpeg started on 2016-12-06 at 08:57:37
Report written to "Output/x264/results/ffmpeg/sintelfast9000k.log"
Command line:
Tools/ffmpeg/ffmpeg -benchmark -y -i Input/y4m/sintel.y4m -c:v libx264 -preset fast -b:v 9000k -an Output/x264/encoded/sintelfast9000k.mkv
ffmpeg version N-82227-gdb23fde Copyright (c) 2000-2016 the FFmpeg developers
  built with gcc 5.4.0 (Ubuntu 5.4.0-6ubuntu1~16.04.2) 20160609
  configuration: --prefix=/home/jaroslav/ffmpeg_build --pkg-config-flags=--static --extra-cflags=-I/home/jaroslav/ffmpeg_build/include --extra-ldflags=-L/home/jaroslav/ffmpeg_build/lib --bindir=/home/jaroslav/bin --enable-gpl --enable-libass --enable-libfdk-aac --enable-libfreetype --enable-libmp3lame --enable-libopus --enable-libtheora --enable-libvorbis --enable-libvpx --enable-libx264 --enable-libx265 --enable-nvenc --enable-libmfx --enable-libxvid --enable-libgsm --enable-libopencore-amrnb --enable-version3 --enable-nonfree
  libavutil      55. 35.100 / 55. 35.100
  libavcodec     57. 66.101 / 57. 66.101
  libavformat    57. 57.100 / 57. 57.100
  libavdevice    57.  2.100 / 57.  2.100
  libavfilter     6. 66.100 /  6. 66.100
  libswscale      4.  3.100 /  4.  3.100
  libswresample   2.  4.100 /  2.  4.100
  libpostproc    54.  2.100 / 54.  2.100
Input #0, yuv4mpegpipe, from 'Input/y4m/sintel.y4m':
  Duration: 00:00:20.83, start: 0.000000, bitrate: 2057307 kb/s
    Stream #0:0: Video: rawvideo (I420 / 0x30323449), yuv420p(progressive), 4096x1744, SAR 1:1 DAR 256:109, 24 fps, 24 tbr, 24 tbn, 24 tbc
[libx264 @ 0x2f3a120] using SAR=1/1
[libx264 @ 0x2f3a120] using cpu capabilities: MMX2 SSE2Fast SSSE3 SSE4.2 AVX FMA3 AVX2 LZCNT BMI2
[libx264 @ 0x2f3a120] profile High, level 5.1
[libx264 @ 0x2f3a120] 264 - core 148 - H.264/MPEG-4 AVC codec - Copyleft 2003-2016 - http://www.videolan.org/x264.html - options: cabac=1 ref=2 deblock=1:0:0 analyse=0x3:0x113 me=hex subme=6 psy=1 psy_rd=1.00:0.00 mixed_ref=1 me_range=16 chroma_me=1 trellis=1 8x8dct=1 cqm=0 deadzone=21,11 fast_pskip=1 chroma_qp_offset=-2 threads=6 lookahead_threads=1 sliced_threads=0 nr=0 decimate=1 interlaced=0 bluray_compat=0 constrained_intra=0 bframes=3 b_pyramid=2 b_adapt=1 b_bias=0 direct=1 weightb=1 open_gop=0 weightp=1 keyint=250 keyint_min=24 scenecut=40 intra_refresh=0 rc_lookahead=30 rc=abr mbtree=1 bitrate=9000 ratetol=1.0 qcomp=0.60 qpmin=0 qpmax=69 qpstep=4 ip_ratio=1.40 aq=1:1.00
Output #0, matroska, to 'Output/x264/encoded/sintelfast9000k.mkv':
  Metadata:
    encoder         : Lavf57.57.100
    Stream #0:0: Video: h264 (libx264) (H264 / 0x34363248), yuv420p, 4096x1744 [SAR 1:1 DAR 256:109], q=-1--1, 9000 kb/s, 24 fps, 1k tbn, 24 tbc
    Metadata:
      encoder         : Lavc57.66.101 libx264
    Side data:
      cpb: bitrate max/min/avg: 0/0/9000000 buffer size: 0 vbv_delay: -1
Stream mapping:
  Stream #0:0 -> #0:0 (rawvideo (native) -> h264 (libx264))
Press [q] to stop, [?] for help
frame=    9 fps=0.0 q=0.0 size=       0kB time=00:00:00.00 bitrate=N/A speed=   0x    frame=   18 fps= 17 q=0.0 size=       0kB time=00:00:00.00 bitrate=N/A speed=   0x    frame=   27 fps= 17 q=0.0 size=       0kB time=00:00:00.00 bitrate=N/A speed=   0x    frame=   36 fps= 17 q=0.0 size=       0kB time=00:00:00.00 bitrate=N/A speed=   0x    frame=   37 fps=9.9 q=0.0 size=       0kB time=00:00:00.00 bitrate=N/A speed=   0x    frame=   43 fps=9.4 q=26.0 size=       1kB time=00:00:00.00 bitrate=5872.0kbits/s speed=0.000219x    frame=   45 fps=5.5 q=29.0 size=       1kB time=00:00:00.08 bitrate=  69.9kbits/s speed=0.0102x    frame=   46 fps=4.1 q=32.0 size=       1kB time=00:00:00.12 bitrate=  46.6kbits/s speed=0.0111x    frame=   51 fps=4.3 q=44.0 size=       1kB time=00:00:00.33 bitrate=  17.6kbits/s speed=0.0279x    frame=   58 fps=4.6 q=43.0 size=       1kB time=00:00:00.62 bitrate=   9.4kbits/s speed=0.0498x    frame=   65 fps=4.9 q=43.0 size=       1kB time=00:00:00.91 bitrate=   6.4kbits/s speed=0.0695x    frame=   72 fps=5.2 q=42.0 size=       1kB time=00:00:01.20 bitrate=   4.9kbits/s speed=0.0878x    frame=   78 fps=5.4 q=41.0 size=       1kB time=00:00:01.45 bitrate=   4.0kbits/s speed=0.101x    frame=   85 fps=5.7 q=41.0 size=       1kB time=00:00:01.75 bitrate=   3.4kbits/s speed=0.117x    frame=   93 fps=5.9 q=40.0 size=       1kB time=00:00:02.08 bitrate=   2.8kbits/s speed=0.133x    frame=   99 fps=6.1 q=40.0 size=       1kB time=00:00:02.33 bitrate=   2.5kbits/s speed=0.143x    frame=  105 fps=6.2 q=40.0 size=       1kB time=00:00:02.58 bitrate=   2.3kbits/s speed=0.154x    frame=  110 fps=6.3 q=39.0 size=       1kB time=00:00:02.79 bitrate=   2.1kbits/s speed=0.16x    frame=  116 fps=6.4 q=39.0 size=       1kB time=00:00:03.04 bitrate=   1.9kbits/s speed=0.168x    frame=  122 fps=6.6 q=39.0 size=       1kB time=00:00:03.29 bitrate=   1.8kbits/s speed=0.177x    frame=  126 fps=6.6 q=39.0 size=       1kB time=00:00:03.45 bitrate=   1.7kbits/s speed=0.18x    frame=  133 fps=6.7 q=38.0 size=       1kB time=00:00:03.75 bitrate=   1.6kbits/s speed=0.189x    frame=  141 fps=6.9 q=38.0 size=    4834kB time=00:00:04.08 bitrate=9697.4kbits/s speed=0.199x    frame=  146 fps=6.9 q=38.0 size=    4834kB time=00:00:04.29 bitrate=9225.2kbits/s speed=0.204x    frame=  153 fps=7.1 q=38.0 size=    4834kB time=00:00:04.58 bitrate=8639.6kbits/s speed=0.212x    frame=  159 fps=7.2 q=38.0 size=    4834kB time=00:00:04.83 bitrate=8192.8kbits/s speed=0.218x    frame=  165 fps=7.2 q=38.0 size=    4834kB time=00:00:05.08 bitrate=7789.9kbits/s speed=0.223x    frame=  171 fps=7.3 q=38.0 size=    4834kB time=00:00:05.33 bitrate=7424.8kbits/s speed=0.228x    frame=  177 fps=7.4 q=38.0 size=    4834kB time=00:00:05.58 bitrate=7092.4kbits/s speed=0.233x    frame=  183 fps=7.5 q=37.0 size=    4834kB time=00:00:05.83 bitrate=6788.5kbits/s speed=0.238x    frame=  190 fps=7.6 q=37.0 size=    4834kB time=00:00:06.12 bitrate=6464.9kbits/s speed=0.244x    frame=  197 fps=7.6 q=37.0 size=    7226kB time=00:00:06.41 bitrate=9223.3kbits/s speed=0.249x    frame=  204 fps=7.7 q=37.0 size=    7226kB time=00:00:06.70 bitrate=8823.2kbits/s speed=0.255x    frame=  211 fps=7.8 q=37.0 size=    7226kB time=00:00:07.00 bitrate=8455.2kbits/s speed=0.26x    frame=  216 fps=7.9 q=37.0 size=    7226kB time=00:00:07.20 bitrate=8211.3kbits/s speed=0.262x    frame=  222 fps=7.9 q=37.0 size=    7226kB time=00:00:07.45 bitrate=7936.1kbits/s speed=0.265x    frame=  231 fps=8.0 q=36.0 size=    8195kB time=00:00:07.83 bitrate=8569.5kbits/s speed=0.271x    frame=  239 fps=8.1 q=36.0 size=    8195kB time=00:00:08.16 bitrate=8219.1kbits/s speed=0.276x    frame=  246 fps=8.2 q=36.0 size=    8195kB time=00:00:08.45 bitrate=7936.3kbits/s speed=0.28x    frame=  252 fps=8.2 q=36.0 size=    8195kB time=00:00:08.70 bitrate=7708.5kbits/s speed=0.284x    frame=  259 fps=8.3 q=36.0 size=    8195kB time=00:00:09.00 bitrate=7458.5kbits/s speed=0.287x    frame=  265 fps=8.3 q=36.0 size=    8195kB time=00:00:09.25 bitrate=7256.9kbits/s speed=0.289x    frame=  271 fps=8.3 q=36.0 size=    8195kB time=00:00:09.50 bitrate=7065.9kbits/s speed=0.292x    frame=  277 fps=8.4 q=36.0 size=    8195kB time=00:00:09.75 bitrate=6884.8kbits/s speed=0.295x    frame=  283 fps=8.4 q=35.0 size=    8195kB time=00:00:10.00 bitrate=6712.7kbits/s speed=0.298x    frame=  291 fps=8.5 q=35.0 size=    8195kB time=00:00:10.33 bitrate=6496.4kbits/s speed=0.303x    frame=  297 fps=8.6 q=35.0 size=    8195kB time=00:00:10.58 bitrate=6342.9kbits/s speed=0.306x    frame=  302 fps=8.5 q=35.0 size=    8195kB time=00:00:10.79 bitrate=6220.1kbits/s speed=0.305x    frame=  310 fps=8.6 q=35.0 size=   11220kB time=00:00:11.12 bitrate=8261.2kbits/s speed=0.31x    frame=  317 fps=8.7 q=35.0 size=   11220kB time=00:00:11.41 bitrate=8049.9kbits/s speed=0.313x    frame=  323 fps=8.7 q=35.0 size=   11220kB time=00:00:11.66 bitrate=7877.4kbits/s speed=0.316x    frame=  329 fps=8.8 q=35.0 size=   11220kB time=00:00:11.91 bitrate=7712.2kbits/s speed=0.318x    frame=  336 fps=8.8 q=34.0 size=   11220kB time=00:00:12.20 bitrate=7528.4kbits/s speed=0.321x    frame=  344 fps=8.9 q=34.0 size=   11220kB time=00:00:12.54 bitrate=7327.9kbits/s speed=0.325x    frame=  352 fps=9.0 q=34.0 size=   11220kB time=00:00:12.87 bitrate=7138.4kbits/s speed=0.33x    frame=  360 fps=9.1 q=33.0 size=   11220kB time=00:00:13.20 bitrate=6958.4kbits/s speed=0.333x    frame=  370 fps=9.2 q=33.0 size=   11220kB time=00:00:13.62 bitrate=6745.5kbits/s speed=0.339x    frame=  376 fps=9.2 q=33.0 size=   11220kB time=00:00:13.87 bitrate=6623.9kbits/s speed=0.34x    frame=  385 fps=9.3 q=32.0 size=   11220kB time=00:00:14.25 bitrate=6449.6kbits/s speed=0.345x    frame=  393 fps=9.4 q=32.0 size=   11220kB time=00:00:14.58 bitrate=6302.4kbits/s speed=0.348x    frame=  403 fps=9.5 q=32.0 size=   13949kB time=00:00:15.00 bitrate=7617.4kbits/s speed=0.353x    frame=  408 fps=9.5 q=32.0 size=   13949kB time=00:00:15.20 bitrate=7513.2kbits/s speed=0.353x    frame=  414 fps=9.5 q=32.0 size=   13949kB time=00:00:15.45 bitrate=7391.7kbits/s speed=0.354x    frame=  421 fps=9.5 q=32.0 size=   13949kB time=00:00:15.75 bitrate=7254.7kbits/s speed=0.355x    frame=  428 fps=9.5 q=31.0 size=   13949kB time=00:00:16.04 bitrate=7122.6kbits/s speed=0.357x    frame=  435 fps=9.5 q=31.0 size=   13949kB time=00:00:16.33 bitrate=6995.7kbits/s speed=0.358x    frame=  441 fps=9.5 q=32.0 size=   13949kB time=00:00:16.58 bitrate=6890.3kbits/s speed=0.358x    frame=  447 fps=9.5 q=32.0 size=   13949kB time=00:00:16.83 bitrate=6788.0kbits/s speed=0.359x    frame=  455 fps=9.6 q=32.0 size=   13949kB time=00:00:17.16 bitrate=6655.9kbits/s speed=0.361x    frame=  463 fps=9.6 q=32.0 size=   16581kB time=00:00:17.50 bitrate=7761.3kbits/s speed=0.364x    frame=  470 fps=9.7 q=32.0 size=   16581kB time=00:00:17.79 bitrate=7633.9kbits/s speed=0.366x    frame=  474 fps=9.6 q=32.0 size=   16581kB time=00:00:17.95 bitrate=7563.4kbits/s speed=0.365x    frame=  482 fps=9.7 q=32.0 size=   16581kB time=00:00:18.29 bitrate=7425.3kbits/s speed=0.368x    frame=  489 fps=9.7 q=32.0 size=   16581kB time=00:00:18.58 bitrate=7309.0kbits/s speed=0.37x    frame=  496 fps=9.7 q=32.0 size=   16581kB time=00:00:18.87 bitrate=7195.9kbits/s speed=0.371x    frame=  500 fps=9.3 q=-1.0 Lsize=   20145kB time=00:00:20.70 bitrate=7969.0kbits/s speed=0.386x    
video:20140kB audio:0kB subtitle:0kB other streams:0kB global headers:0kB muxing overhead: 0.024123%
bench: utime=168.196s
bench: maxrss=1325516kB
[libx264 @ 0x2f3a120] frame I:8     Avg QP:26.49  size:135703
[libx264 @ 0x2f3a120] frame P:269   Avg QP:31.76  size: 47232
[libx264 @ 0x2f3a120] frame B:223   Avg QP:29.27  size: 30636
[libx264 @ 0x2f3a120] consecutive B-frames: 37.0%  8.4%  6.6% 48.0%
[libx264 @ 0x2f3a120] mb I  I16..4: 26.0% 69.4%  4.5%
[libx264 @ 0x2f3a120] mb P  I16..4: 19.1% 22.3%  0.4%  P16..4: 22.2%  2.4%  0.8%  0.0%  0.0%    skip:32.7%
[libx264 @ 0x2f3a120] mb B  I16..4:  6.7%  6.5%  0.4%  B16..8: 17.0%  2.1%  0.1%  direct: 8.3%  skip:58.9%  L0:42.6% L1:52.5% BI: 4.9%
[libx264 @ 0x2f3a120] final ratefactor: 28.63
[libx264 @ 0x2f3a120] 8x8 transform intra:53.1% inter:88.9%
[libx264 @ 0x2f3a120] coded y,uvDC,uvAC intra: 15.4% 23.2% 1.6% inter: 6.2% 6.4% 0.0%
[libx264 @ 0x2f3a120] i16 v,h,dc,p: 33% 31%  9% 27%
[libx264 @ 0x2f3a120] i8 v,h,dc,ddl,ddr,vr,hd,vl,hu: 22% 17% 42%  3%  3%  3%  4%  3%  3%
[libx264 @ 0x2f3a120] i4 v,h,dc,ddl,ddr,vr,hd,vl,hu: 18% 23% 11%  7% 10%  8% 11%  5%  7%
[libx264 @ 0x2f3a120] i8c dc,h,v,p: 76% 12% 11%  1%
[libx264 @ 0x2f3a120] Weighted P-Frames: Y:0.7% UV:0.0%
[libx264 @ 0x2f3a120] ref P L0: 84.1% 15.9%
[libx264 @ 0x2f3a120] ref B L0: 87.8% 12.2%
[libx264 @ 0x2f3a120] ref B L1: 97.1%  2.9%
[libx264 @ 0x2f3a120] kb/s:7919.23
